<svg width="13" height="13" viewBox="0 0 13 13" fill="none" xmlns="http://www.w3.org/2000/svg">
<path d="M1.8 0C0.805888 0 0 0.805887 0 1.8V3.6C0 4.59411 0.805887 5.4 1.8 5.4H3.6C4.59411 5.4 5.4 4.59411 5.4 3.6V1.8C5.4 0.805888 4.59411 0 3.6 0H1.8Z" fill="white"/>
<path d="M1.8 7.2C0.805888 7.2 0 8.00589 0 9V10.8C0 11.7941 0.805887 12.6 1.8 12.6H3.6C4.59411 12.6 5.4 11.7941 5.4 10.8V9C5.4 8.00589 4.59411 7.2 3.6 7.2H1.8Z" fill="white"/>
<path d="M7.2 1.8C7.2 0.805887 8.00589 0 9 0H10.8C11.7941 0 12.6 0.805888 12.6 1.8V3.6C12.6 4.59411 11.7941 5.4 10.8 5.4H9C8.00589 5.4 7.2 4.59411 7.2 3.6V1.8Z" fill="white"/>
<path d="M7.2 9C7.2 8.00589 8.00589 7.2 9 7.2H10.8C11.7941 7.2 12.6 8.00589 12.6 9V10.8C12.6 11.7941 11.7941 12.6 10.8 12.6H9C8.00589 12.6 7.2 11.7941 7.2 10.8V9Z" fill="white"/>
</svg>
