<svg width="16" height="15" viewBox="0 0 16 15" fill="none" xmlns="http://www.w3.org/2000/svg">
<path fill-rule="evenodd" clip-rule="evenodd" d="M5.0625 2.8125C5.0625 1.2592 6.3217 0 7.875 0C9.4283 0 10.6875 1.2592 10.6875 2.8125C10.6875 4.3658 9.4283 5.625 7.875 5.625C6.3217 5.625 5.0625 4.3658 5.0625 2.8125Z" fill="white"/>
<path fill-rule="evenodd" clip-rule="evenodd" d="M10.6875 5.0625C10.6875 3.81986 11.6949 2.8125 12.9375 2.8125C14.1801 2.8125 15.1875 3.81986 15.1875 5.0625C15.1875 6.30514 14.1801 7.3125 12.9375 7.3125C11.6949 7.3125 10.6875 6.30514 10.6875 5.0625Z" fill="white"/>
<path fill-rule="evenodd" clip-rule="evenodd" d="M0.5625 5.0625C0.5625 3.81986 1.56986 2.8125 2.8125 2.8125C4.05514 2.8125 5.0625 3.81986 5.0625 5.0625C5.0625 6.30514 4.05514 7.3125 2.8125 7.3125C1.56986 7.3125 0.5625 6.30514 0.5625 5.0625Z" fill="white"/>
<path fill-rule="evenodd" clip-rule="evenodd" d="M3.6074 9.08814C4.50587 7.68331 6.08126 6.75 7.875 6.75C9.66896 6.75 11.2445 7.68354 12.1429 9.08866C12.7641 10.0601 13.0328 11.2314 12.9067 12.3734C12.887 12.5519 12.7833 12.7103 12.6276 12.7996C11.2271 13.6032 9.60381 14.0625 7.875 14.0625C6.14619 14.0625 4.52294 13.6032 3.12243 12.7996C2.96669 12.7103 2.86297 12.5519 2.84327 12.3734C2.7172 11.2312 2.98606 10.0596 3.6074 9.08814Z" fill="white"/>
<path d="M2.68671 8.44026C2.67768 8.45414 2.6687 8.46805 2.65978 8.482C1.93569 9.61418 1.60431 10.9625 1.70604 12.2918C1.25 12.2225 0.807523 12.1111 0.382821 11.9615L0.296602 11.9311C0.139319 11.8757 0.0294206 11.7329 0.0161932 11.5667L0.00894235 11.4756C0.00301286 11.401 0 11.3258 0 11.25C0 9.73885 1.19178 8.50606 2.68671 8.44026Z" fill="white"/>
<path d="M14.0442 12.2917C14.1459 10.9627 13.8147 9.61468 13.0909 8.48263C13.0818 8.46847 13.0727 8.45436 13.0636 8.44028C14.5584 8.50621 15.75 9.73894 15.75 11.25C15.75 11.3258 15.747 11.4011 15.7411 11.4756L15.7338 11.5667C15.7206 11.7329 15.6107 11.8757 15.4534 11.9311L15.3672 11.9615C14.9426 12.111 14.5002 12.2224 14.0442 12.2917Z" fill="white"/>
</svg>
