<svg width="13" height="14" viewBox="0 0 13 14" fill="none" xmlns="http://www.w3.org/2000/svg">
<path fill-rule="evenodd" clip-rule="evenodd" d="M2.1 1.05C1.5201 1.05 1.05 1.5201 1.05 2.1L1.05 11.55C1.05 12.1299 1.5201 12.6 2.1 12.6H6.3C6.8799 12.6 7.35 12.1299 7.35 11.55V8.925C7.35 8.63505 7.58505 8.4 7.875 8.4C8.16495 8.4 8.4 8.63505 8.4 8.925V11.55C8.4 12.7098 7.4598 13.65 6.3 13.65H2.1C0.940202 13.65 -6.25849e-08 12.7098 0 11.55L4.06802e-07 2.1C4.69387e-07 0.940202 0.940202 -6.25849e-08 2.1 0L6.3 1.87755e-07C7.4598 2.19047e-07 8.4 0.940202 8.4 2.1V4.725C8.4 5.01495 8.16495 5.25 7.875 5.25C7.58505 5.25 7.35 5.01495 7.35 4.725V2.1C7.35 1.5201 6.8799 1.05 6.3 1.05L2.1 1.05ZM9.60377 4.35377C9.8088 4.14875 10.1412 4.14875 10.3462 4.35377L12.4462 6.45377C12.6513 6.6588 12.6513 6.99121 12.4462 7.19623L10.3462 9.29623C10.1412 9.50126 9.8088 9.50126 9.60377 9.29623C9.39874 9.09121 9.39874 8.7588 9.60377 8.55377L10.8075 7.35L3.15 7.35C2.86005 7.35 2.625 7.11495 2.625 6.825C2.625 6.53505 2.86005 6.3 3.15 6.3L10.8075 6.3L9.60377 5.09623C9.39875 4.89121 9.39875 4.5588 9.60377 4.35377Z" fill="white"/>
</svg>
