<svg width="14" height="16" viewBox="0 0 14 16" fill="none" xmlns="http://www.w3.org/2000/svg">
<path fill-rule="evenodd" clip-rule="evenodd" d="M10.1251 2.23364V2.40373C10.8411 2.46928 11.5513 2.55548 12.2548 2.66173C12.5153 2.70107 12.7749 2.74316 13.0336 2.78797C13.3397 2.841 13.5449 3.13212 13.4918 3.43823C13.4388 3.74433 13.1477 3.94949 12.8416 3.89646C12.7894 3.88742 12.7371 3.87849 12.6849 3.86968L11.9308 13.6726C11.8406 14.8448 10.8631 15.75 9.68741 15.75H3.81277C2.63706 15.75 1.65957 14.8448 1.5694 13.6726L0.815329 3.86968C0.763047 3.87849 0.710804 3.88742 0.6586 3.89646C0.352499 3.94949 0.0613699 3.74433 0.00834602 3.43823C-0.0446779 3.13212 0.160482 2.841 0.466584 2.78797C0.725258 2.74316 0.98486 2.70107 1.24536 2.66173C1.94893 2.55548 2.65905 2.46928 3.37509 2.40373V2.23364C3.37509 1.06029 4.28449 0.0586369 5.48667 0.0201803C5.90618 0.00676041 6.32736 0 6.75009 0C7.17283 0 7.594 0.00676041 8.01352 0.0201803C9.21569 0.0586369 10.1251 1.06029 10.1251 2.23364ZM5.52264 1.14461C5.93017 1.13157 6.33935 1.125 6.75009 1.125C7.16083 1.125 7.57002 1.13157 7.97755 1.14461C8.54351 1.16271 9.00009 1.63795 9.00009 2.23364V2.31812C8.25582 2.27292 7.5056 2.25 6.75009 2.25C5.99459 2.25 5.24436 2.27292 4.50009 2.31812V2.23364C4.50009 1.63795 4.95668 1.16271 5.52264 1.14461ZM5.25654 5.60338C5.2446 5.29295 4.98327 5.05098 4.67284 5.06292C4.36241 5.07486 4.12043 5.33619 4.13237 5.64662L4.39199 12.3966C4.40393 12.707 4.66526 12.949 4.97569 12.9371C5.28612 12.9251 5.5281 12.6638 5.51616 12.3534L5.25654 5.60338ZM9.36712 5.64662C9.37906 5.33619 9.13708 5.07486 8.82665 5.06292C8.51622 5.05098 8.25489 5.29295 8.24295 5.60338L7.98334 12.3534C7.9714 12.6638 8.21337 12.9251 8.5238 12.9371C8.83423 12.949 9.09556 12.707 9.1075 12.3966L9.36712 5.64662Z" fill="white"/>
</svg>
