<svg width="14" height="15" viewBox="0 0 14 15" fill="none" xmlns="http://www.w3.org/2000/svg">
<path fill-rule="evenodd" clip-rule="evenodd" d="M6.1757 0C5.48827 0 4.9016 0.496987 4.78858 1.17506L4.65459 1.97905C4.63947 2.06973 4.56884 2.17485 4.43211 2.2406C4.17407 2.36469 3.92703 2.50785 3.69283 2.6682C3.56796 2.7537 3.44172 2.7624 3.35554 2.73011L2.59116 2.44375C1.94742 2.20258 1.22368 2.46216 0.879967 3.0575L0.18848 4.25519C-0.155235 4.85052 -0.0181687 5.60709 0.512557 6.044L1.14295 6.56296C1.21392 6.62138 1.2695 6.73487 1.25817 6.88554C1.24758 7.02657 1.24219 7.16896 1.24219 7.3125C1.24219 7.45609 1.24758 7.59853 1.25819 7.73962C1.26952 7.8903 1.21394 8.00379 1.14296 8.06221L0.512557 8.58119C-0.0181688 9.0181 -0.155235 9.77466 0.18848 10.37L0.879966 11.5677C1.22368 12.163 1.94742 12.4226 2.59116 12.1814L3.35571 11.895C3.44189 11.8627 3.56812 11.8714 3.69299 11.9569C3.92714 12.1172 4.17413 12.2603 4.43211 12.3844C4.56884 12.4502 4.63947 12.5553 4.65459 12.646L4.78858 13.4499C4.9016 14.128 5.48827 14.625 6.1757 14.625H7.55867C8.2461 14.625 8.83278 14.128 8.94579 13.4499L9.07979 12.646C9.0949 12.5553 9.16553 12.4502 9.30226 12.3844C9.56031 12.2603 9.80734 12.1172 10.0415 11.9568C10.1664 11.8713 10.2927 11.8626 10.3788 11.8949L11.1432 12.1813C11.787 12.4224 12.5107 12.1628 12.8544 11.5675L13.5459 10.3698C13.8896 9.77448 13.7525 9.01792 13.2218 8.581L12.5914 8.06204C12.5205 8.00362 12.4649 7.89013 12.4762 7.73946C12.4868 7.59843 12.4922 7.45604 12.4922 7.3125C12.4922 7.16891 12.4868 7.02647 12.4762 6.88538C12.4649 6.7347 12.5204 6.62121 12.5914 6.56279L13.2218 6.04381C13.7525 5.6069 13.8896 4.85034 13.5459 4.255L12.8544 3.05731C12.5107 2.46198 11.787 2.2024 11.1432 2.44357L10.3787 2.73C10.2925 2.76228 10.1662 2.75358 10.0414 2.66809C9.80723 2.50778 9.56025 2.36466 9.30226 2.2406C9.16553 2.17485 9.0949 2.06973 9.07979 1.97905L8.94579 1.17506C8.83278 0.496986 8.2461 0 7.55867 0H6.1757ZM6.86728 10.125C8.42058 10.125 9.67978 8.8658 9.67978 7.3125C9.67978 5.7592 8.42058 4.5 6.86728 4.5C5.31398 4.5 4.05478 5.7592 4.05478 7.3125C4.05478 8.8658 5.31398 10.125 6.86728 10.125Z" fill="white"/>
</svg>
