<svg width="13" height="13" viewBox="0 0 13 13" fill="none" xmlns="http://www.w3.org/2000/svg">
<path fill-rule="evenodd" clip-rule="evenodd" d="M0 6.3C0 2.82061 2.82061 0 6.3 0C9.77939 0 12.6 2.82061 12.6 6.3C12.6 9.77939 9.77939 12.6 6.3 12.6C2.82061 12.6 0 9.77939 0 6.3ZM7.35172 3.76919C6.77742 3.26668 5.82287 3.26668 5.24857 3.76919C5.04714 3.94544 4.74098 3.92503 4.56474 3.72361C4.38849 3.52218 4.4089 3.21602 4.61033 3.03977C5.55005 2.21751 7.05024 2.21751 7.98997 3.03977C8.96764 3.89524 8.96764 5.31245 7.98997 6.16792C7.82413 6.31303 7.64147 6.43189 7.44889 6.52509C7.01192 6.73657 6.78476 7.0251 6.78476 7.26923V7.75385C6.78476 8.02149 6.56779 8.23846 6.30015 8.23846C6.0325 8.23846 5.81553 8.02149 5.81553 7.75385V7.26923C5.81553 6.44278 6.49999 5.90755 7.02667 5.65266C7.14469 5.59555 7.25405 5.52397 7.35172 5.4385C7.88808 4.96918 7.88808 4.23851 7.35172 3.76919ZM6.3 10.1769C6.56765 10.1769 6.78462 9.95995 6.78462 9.69231C6.78462 9.42466 6.56765 9.20769 6.3 9.20769C6.03235 9.20769 5.81538 9.42466 5.81538 9.69231C5.81538 9.95995 6.03235 10.1769 6.3 10.1769Z" fill="white"/>
</svg>
