<svg width="15" height="14" viewBox="0 0 15 14" fill="none" xmlns="http://www.w3.org/2000/svg">
<path d="M2.4873 1.24293C2.77013 1.16604 3.06772 1.125 3.37489 1.125H11.2499C11.5571 1.125 11.8547 1.16604 12.1375 1.24293C11.768 0.505903 11.0055 0 10.1249 0H4.49989C3.61928 0 2.85682 0.505903 2.4873 1.24293Z" fill="white"/>
<path d="M0 6.75C0 5.50736 1.00736 4.5 2.25 4.5H12.375C13.6176 4.5 14.625 5.50736 14.625 6.75V11.25C14.625 12.4926 13.6176 13.5 12.375 13.5H2.25C1.00736 13.5 0 12.4926 0 11.25V6.75Z" fill="white"/>
<path d="M2.24989 3.375C1.94272 3.375 1.64513 3.41604 1.3623 3.49293C1.73182 2.7559 2.49428 2.25 3.37489 2.25H11.2499C12.1305 2.25 12.893 2.7559 13.2625 3.49293C12.9797 3.41604 12.6821 3.375 12.3749 3.375H2.24989Z" fill="white"/>
</svg>
